<svg width="33" height="33" viewBox="0 0 33 33" fill="none" xmlns="http://www.w3.org/2000/svg">
<path d="M5.85934 26.5558C7.41767 25.4338 9.07134 24.5471 10.8203 23.8957C12.5681 23.243 14.4613 22.9167 16.5 22.9167C18.5387 22.9167 20.4319 23.243 22.1797 23.8957C23.9274 24.5483 25.5811 25.4344 27.1407 26.554C28.3507 25.3012 29.3242 23.8223 30.0612 22.1173C30.7982 20.4099 31.1667 18.5374 31.1667 16.5C31.1667 12.4361 29.7385 8.97539 26.8822 6.11783C24.0258 3.26028 20.5651 1.83211 16.5 1.83333C12.4349 1.83456 8.97417 3.26333 6.11784 6.11967C3.2615 8.976 1.83334 12.4361 1.83334 16.5C1.83334 18.5374 2.20184 20.4099 2.93884 22.1173C3.67584 23.8236 4.64934 25.3024 5.85934 26.554M16.5 17.4167C14.9563 17.4167 13.6534 16.8862 12.5913 15.8253C11.5292 14.7644 10.9988 13.4616 11 11.9167C11.0012 10.3718 11.5317 9.06889 12.5913 8.008C13.651 6.94711 14.9539 6.41667 16.5 6.41667C18.0461 6.41667 19.349 6.94711 20.4087 8.008C21.4683 9.06889 21.9988 10.3718 22 11.9167C22.0012 13.4616 21.4708 14.7644 20.4087 15.8253C19.3466 16.8862 18.0437 17.4167 16.5 17.4167ZM16.5 33C14.1986 33 12.0444 32.5716 10.0375 31.7148C8.03061 30.8581 6.28406 29.6872 4.79784 28.2022C3.31161 26.7172 2.14072 24.9706 1.28517 22.9625C0.429614 20.9544 0.00122483 18.8002 2.60787e-06 16.5C-0.00121961 14.1998 0.427169 12.0456 1.28517 10.0375C2.14317 8.02939 3.31406 6.28283 4.79784 4.79783C6.28406 3.31283 8.03061 2.14194 10.0375 1.28517C12.0444 0.428389 14.1986 0 16.5 0C18.8014 0 20.9556 0.428389 22.9625 1.28517C24.9694 2.14194 26.7159 3.31283 28.2022 4.79783C29.6884 6.28283 30.8593 8.02939 31.7148 10.0375C32.5704 12.0456 32.9988 14.1998 33 16.5C33.0012 18.8002 32.5728 20.9544 31.7148 22.9625C30.8568 24.9706 29.6859 26.7172 28.2022 28.2022C26.7159 29.6872 24.9694 30.8581 22.9625 31.7148C20.9556 32.5716 18.8014 33 16.5 33Z" fill="#A5A8A5"/>
</svg>
