<svg width="13" height="23" viewBox="0 0 13 23" fill="none" xmlns="http://www.w3.org/2000/svg">
<path d="M0.494077 0.494077C0.17772 0.81053 0 1.23967 0 1.68714C0 2.1346 0.17772 2.56375 0.494077 2.8802L8.8472 11.2333L0.494077 19.5865C0.186686 19.9047 0.0165944 20.331 0.0204392 20.7734C0.0242841 21.2159 0.201757 21.6391 0.514633 21.952C0.82751 22.2649 1.25076 22.4424 1.69321 22.4462C2.13567 22.4501 2.56194 22.28 2.8802 21.9726L12.4264 12.4264C12.7427 12.1099 12.9205 11.6808 12.9205 11.2333C12.9205 10.7859 12.7427 10.3567 12.4264 10.0403L2.8802 0.494077C2.56375 0.17772 2.1346 0 1.68714 0C1.23967 0 0.81053 0.17772 0.494077 0.494077Z" fill="#73A373"/>
</svg>
