<svg width="42" height="42" viewBox="0 0 42 42" fill="none" xmlns="http://www.w3.org/2000/svg">
<path d="M24.1161 7.06412L35.1776 15.2157C35.7999 15.6726 36.1714 16.3766 36.1714 17.1279V32.0248C36.1714 33.4023 34.9683 34.4616 33.5635 34.4616H28.6286V26.4234C28.6286 25.1892 28.0822 24.0055 27.1097 23.1328C26.1372 22.2601 24.8182 21.7698 23.4429 21.7698H21.5571C20.1818 21.7698 18.8628 22.2601 17.8903 23.1328C16.9178 24.0055 16.3714 25.1892 16.3714 26.4234V34.4616H11.4365C10.0317 34.4616 8.82859 33.4023 8.82859 32.0248V17.1296C8.82859 16.3766 9.20007 15.6743 9.82236 15.2174L20.8839 7.06243C21.3378 6.72357 21.9096 6.53804 22.5 6.53804C23.0904 6.53804 23.6622 6.72526 24.1161 7.06412ZM33.5635 36.9983C36.5995 36.9983 39 34.7392 39 32.0231V17.1279C39.0022 16.3877 38.8215 15.6562 38.471 14.9862C38.1205 14.3161 37.6088 13.7241 36.9728 13.2527L25.9131 5.10111C24.9533 4.38936 23.747 4 22.5019 4C21.2567 4 20.0505 4.38936 19.0906 5.10111L8.02716 13.2544C7.39119 13.7258 6.87954 14.3178 6.52903 14.9879C6.17851 15.6579 5.99784 16.3894 6.00002 17.1296V32.0248C6.00002 34.7408 8.40053 37 11.4365 37L33.5635 36.9983Z" fill="#316E33"/>
</svg>
