<svg width="42" height="42" viewBox="0 0 42 42" fill="none" xmlns="http://www.w3.org/2000/svg">
<path d="M10.5 38.5C9.5375 38.5 8.71383 38.1576 8.029 37.4728C7.34417 36.7879 7.00117 35.9637 7 35V7C7 6.0375 7.343 5.21383 8.029 4.529C8.715 3.84417 9.53867 3.50117 10.5 3.5H31.5C32.4625 3.5 33.2868 3.843 33.9727 4.529C34.6588 5.215 35.0012 6.03867 35 7V35C35 35.9625 34.6576 36.7868 33.9727 37.4728C33.2879 38.1587 32.4637 38.5012 31.5 38.5H10.5ZM10.5 35H31.5V7H28V17.7188C28 18.0688 27.8542 18.3242 27.5625 18.4852C27.2708 18.6462 26.9792 18.6387 26.6875 18.4625L24.5437 17.15C24.2521 16.975 23.9528 16.8875 23.646 16.8875C23.3392 16.8875 23.0405 16.975 22.75 17.15L20.6062 18.4625C20.3146 18.6375 20.0159 18.6451 19.7102 18.4852C19.4046 18.3254 19.2512 18.0699 19.25 17.7188V7H10.5V35ZM19.7102 18.4852C19.4046 18.3254 19.2512 18.0699 19.25 17.7188C19.2488 18.0699 19.4034 18.3254 19.7102 18.4852Z" fill="#A5A8A5"/>
</svg>
