<svg width="40" height="40" viewBox="0 0 40 40" fill="none" xmlns="http://www.w3.org/2000/svg">
<path d="M6.7855 19.6729C5.6855 19.6729 4.75574 19.2732 3.99622 18.4737C3.2367 17.6742 2.85693 16.6955 2.85693 15.5376C2.85693 14.3797 3.2367 13.401 3.99622 12.6015C4.75574 11.802 5.6855 11.4022 6.7855 11.4022C7.8855 11.4022 8.81527 11.802 9.57479 12.6015C10.3343 13.401 10.7141 14.3797 10.7141 15.5376C10.7141 16.6955 10.3343 17.6742 9.57479 18.4737C8.81527 19.2732 7.8855 19.6729 6.7855 19.6729ZM13.8569 13.0564C12.7569 13.0564 11.8272 12.6566 11.0676 11.8571C10.3081 11.0576 9.92836 10.0789 9.92836 8.92104C9.92836 7.76315 10.3081 6.78445 11.0676 5.98495C11.8272 5.18545 12.7569 4.78571 13.8569 4.78571C14.9569 4.78571 15.8867 5.18545 16.6462 5.98495C17.4057 6.78445 17.7855 7.76315 17.7855 8.92104C17.7855 10.0789 17.4057 11.0576 16.6462 11.8571C15.8867 12.6566 14.9569 13.0564 13.8569 13.0564ZM23.2855 13.0564C22.1855 13.0564 21.2557 12.6566 20.4962 11.8571C19.7367 11.0576 19.3569 10.0789 19.3569 8.92104C19.3569 7.76315 19.7367 6.78445 20.4962 5.98495C21.2557 5.18545 22.1855 4.78571 23.2855 4.78571C24.3855 4.78571 25.3153 5.18545 26.0748 5.98495C26.8343 6.78445 27.2141 7.76315 27.2141 8.92104C27.2141 10.0789 26.8343 11.0576 26.0748 11.8571C25.3153 12.6566 24.3855 13.0564 23.2855 13.0564ZM30.3569 19.6729C29.2569 19.6729 28.3272 19.2732 27.5676 18.4737C26.8081 17.6742 26.4284 16.6955 26.4284 15.5376C26.4284 14.3797 26.8081 13.401 27.5676 12.6015C28.3272 11.802 29.2569 11.4022 30.3569 11.4022C31.4569 11.4022 32.3867 11.802 33.1462 12.6015C33.9057 13.401 34.2855 14.3797 34.2855 15.5376C34.2855 16.6955 33.9057 17.6742 33.1462 18.4737C32.3867 19.2732 31.4569 19.6729 30.3569 19.6729ZM10.1641 36.2143C8.98551 36.2143 7.99655 35.739 7.19722 34.7884C6.39789 33.8378 5.99874 32.7141 5.99979 31.4173C5.99979 29.9837 6.46493 28.7293 7.39522 27.6541C8.3255 26.5789 9.24846 25.5175 10.1641 24.4699C10.9236 23.6153 11.5784 22.6851 12.1284 21.6794C12.6784 20.6737 13.3331 19.7292 14.0926 18.8459C14.6688 18.1291 15.3367 17.5363 16.0962 17.0677C16.8557 16.599 17.6807 16.3647 18.5712 16.3647C19.4617 16.3647 20.2867 16.5852 21.0462 17.0263C21.8057 17.4674 22.4736 18.0464 23.0498 18.7631C23.7831 19.6454 24.4316 20.5965 24.9952 21.6165C25.5588 22.6366 26.2199 23.5877 26.9784 24.4699C27.895 25.5175 28.818 26.5789 29.7472 27.6541C30.6765 28.7293 31.1416 29.9837 31.1426 31.4173C31.1426 32.713 30.743 33.8367 29.9436 34.7884C29.1443 35.7401 28.1559 36.2154 26.9784 36.2143C25.5641 36.2143 24.1629 36.0902 22.7748 35.8421C21.3867 35.594 19.9855 35.4699 18.5712 35.4699C17.1569 35.4699 15.7557 35.594 14.3676 35.8421C12.9796 36.0902 11.5784 36.2143 10.1641 36.2143Z" fill="#73A373"/>
</svg>
