<svg width="40" height="40" viewBox="0 0 40 40" fill="none" xmlns="http://www.w3.org/2000/svg">
<path d="M15 5.00002V1.66669H25V5.00002H15ZM18.3333 23.3334H21.6667V13.3334H18.3333V23.3334ZM20 36.6667C17.9444 36.6667 16.0067 36.2711 14.1867 35.48C12.3667 34.6889 10.7767 33.6122 9.41667 32.25C8.05667 30.8878 6.98056 29.2972 6.18833 27.4784C5.39611 25.6595 5 23.7222 5 21.6667C5 19.6111 5.39611 17.6734 6.18833 15.8534C6.98056 14.0334 8.05667 12.4434 9.41667 11.0834C10.7767 9.72335 12.3672 8.64724 14.1883 7.85502C16.0094 7.0628 17.9467 6.66669 20 6.66669C21.7222 6.66669 23.375 6.94446 24.9583 7.50002C26.5417 8.05558 28.0278 8.86113 29.4167 9.91669L31.75 7.58335L34.0833 9.91669L31.75 12.25C32.8056 13.6389 33.6111 15.125 34.1667 16.7084C34.7222 18.2917 35 19.9445 35 21.6667C35 23.7222 34.6039 25.66 33.8117 27.48C33.0194 29.3 31.9433 30.89 30.5833 32.25C29.2233 33.61 27.6328 34.6867 25.8117 35.48C23.9906 36.2734 22.0533 36.6689 20 36.6667Z" fill="#73A373"/>
</svg>
